<svg id="Layer_1" enable-background="new 0 0 512 512" viewBox="0 0 512 512" xmlns="http://www.w3.org/2000/svg" xmlns:xlink="http://www.w3.org/1999/xlink"><linearGradient id="SVGID_1_" gradientUnits="userSpaceOnUse" x1="256" x2="256" y1=".346" y2="511.654"><stop offset="0" stop-color="#2af598"></stop><stop offset="1" stop-color="#009efd"></stop></linearGradient><path d="m375.618 161.546c-10.354-21.31-25.651-45.565-46.057-73.063-29.582-39.863-58.716-71.164-59.941-72.477l-14.62-15.66-14.619 15.66c-1.226 1.313-30.359 32.614-59.941 72.477-20.406 27.498-35.704 51.752-46.057 73.063h-134.383v40h119.984c-1.317 6.405-1.984 12.44-1.984 18.108 0 75.598 61.458 137.101 137 137.101s137-61.503 137-137.101c0-5.668-.667-11.704-1.984-18.108h121.984v-40zm-120.618 155.209c-53.486 0-97-43.56-97-97.101 0-12.599 7.061-43.258 54.346-107.044 15.732-21.222 31.617-40.208 42.654-52.919 11.037 12.711 26.922 31.698 42.654 52.919 47.285 63.786 54.346 94.445 54.346 107.044 0 53.541-43.514 97.101-97 97.101zm-215 54.899c0 11.046-8.954 20-20 20s-20-8.954-20-20 8.954-20 20-20 20 8.954 20 20zm0 120c0 11.046-8.954 20-20 20s-20-8.954-20-20 8.954-20 20-20 20 8.954 20 20zm120-120c0 11.046-8.954 20-20 20s-20-8.954-20-20 8.954-20 20-20 20 8.954 20 20zm0 120c0 11.046-8.954 20-20 20s-20-8.954-20-20 8.954-20 20-20 20 8.954 20 20zm115 0c0 11.046-8.954 20-20 20s-20-8.954-20-20 8.954-20 20-20 20 8.954 20 20zm-175-60c0 11.046-8.954 20-20 20s-20-8.954-20-20 8.954-20 20-20 20 8.954 20 20zm120 0c0 11.046-8.954 20-20 20s-20-8.954-20-20 8.954-20 20-20 20 8.954 20 20zm-120-120c0 11.046-8.954 20-20 20s-20-8.954-20-20 8.954-20 20-20 20 8.954 20 20zm292 60c0 11.046-8.954 20-20 20s-20-8.954-20-20 8.954-20 20-20 20 8.954 20 20zm0 120c0 11.046-8.954 20-20 20s-20-8.954-20-20 8.954-20 20-20 20 8.954 20 20zm120-120c0 11.046-8.954 20-20 20s-20-8.954-20-20 8.954-20 20-20 20 8.954 20 20zm-472-120c0 11.046-8.954 20-20 20s-20-8.954-20-20 8.954-20 20-20 20 8.954 20 20zm472 0c0 11.046-8.954 20-20 20s-20-8.954-20-20 8.954-20 20-20 20 8.954 20 20zm0 240c0 11.046-8.954 20-20 20s-20-8.954-20-20 8.954-20 20-20 20 8.954 20 20zm-60-60c0 11.046-8.954 20-20 20s-20-8.954-20-20 8.954-20 20-20 20 8.954 20 20zm-120 0c0 11.046-8.954 20-20 20s-20-8.954-20-20 8.954-20 20-20 20 8.954 20 20zm120-120c0 11.046-8.954 20-20 20s-20-8.954-20-20 8.954-20 20-20 20 8.954 20 20z" fill="url(#SVGID_1_)"></path></svg>