<!-- icon666.com - MILLIONS vector ICONS FREE --><svg version="1.1" id="Capa_1" xmlns="http://www.w3.org/2000/svg" xmlns:xlink="http://www.w3.org/1999/xlink" x="0px" y="0px" viewBox="0 0 419.004 419.004" style="enable-background:new 0 0 419.004 419.004;" xml:space="preserve"><g><linearGradient id="SVGID_1_" gradientUnits="userSpaceOnUse" x1="-37.119" y1="537.6656" x2="-37.119" y2="458.3286" gradientTransform="matrix(5.2245 0 0 -5.2245 403.4301 2832.1887)"><stop offset="0" style="stop-color:#00EFD1"></stop><stop offset="1" style="stop-color:#00ACEA"></stop></linearGradient><path style="fill:url(#SVGID_1_);" d="M15.673,159.347h341.159c34.482,0,62.171-27.69,62.171-62.171s-27.69-62.171-62.171-62.171 s-62.171,27.69-62.171,62.171c0,8.882,6.792,15.673,15.673,15.673c8.882,0,15.673-6.792,15.673-15.673 c0-17.241,13.584-30.824,30.824-30.824s30.824,13.584,30.824,30.824S374.074,128,356.833,128H15.673C6.792,128,0,134.792,0,143.673 S6.792,159.347,15.673,159.347z"></path><linearGradient id="SVGID_2_" gradientUnits="userSpaceOnUse" x1="-37.719" y1="537.6656" x2="-37.719" y2="458.3286" gradientTransform="matrix(5.2245 0 0 -5.2245 403.4301 2832.1887)"><stop offset="0" style="stop-color:#00EFD1"></stop><stop offset="1" style="stop-color:#00ACEA"></stop></linearGradient><path style="fill:url(#SVGID_2_);" d="M15.673,225.698h381.388c8.882,0,15.673-6.792,15.673-15.673s-6.792-15.673-15.673-15.673 H15.673C6.792,194.351,0,201.143,0,210.024S6.792,225.698,15.673,225.698z"></path><linearGradient id="SVGID_3_" gradientUnits="userSpaceOnUse" x1="-37.119" y1="537.6656" x2="-37.119" y2="458.3286" gradientTransform="matrix(5.2245 0 0 -5.2245 403.4301 2832.1887)"><stop offset="0" style="stop-color:#00EFD1"></stop><stop offset="1" style="stop-color:#00ACEA"></stop></linearGradient><path style="fill:url(#SVGID_3_);" d="M356.833,259.657H15.673C6.792,259.657,0,266.449,0,275.331 c0,8.882,6.792,15.673,15.673,15.673h341.159c17.241,0,30.824,13.584,30.824,30.824c0,17.241-13.584,30.824-30.824,30.824 s-30.824-13.584-30.824-30.824c0-8.882-6.792-15.673-15.673-15.673c-8.882,0-15.673,6.792-15.673,15.673 c0,34.482,27.69,62.171,62.171,62.171s62.171-27.69,62.171-62.171S391.314,259.657,356.833,259.657z"></path></g></svg>